HIERARCHY
ROOT Hips
{
	OFFSET 0.000000 0.000000 0.000000
	CHANNELS 6 Xposition Yposition Zposition Zrotation Yrotation Xrotation 
	JOINT LHipJoint
	{
		OFFSET 0.000000 0.000000 0.000000
		CHANNELS 3 Zrotation Yrotation Xrotation
		JOINT LeftUpLeg
		{
			OFFSET 1.363060 -1.794630 0.839290
			CHANNELS 3 Zrotation Yrotation Xrotation
			JOINT LeftLeg
			{
				OFFSET 2.448110 -6.726130 0.000000
				CHANNELS 3 Zrotation Yrotation Xrotation
				JOINT LeftFoot
				{
					OFFSET 2.562200 -7.039590 0.000000
					CHANNELS 3 Zrotation Yrotation Xrotation
					JOINT LeftToeBase
					{
						OFFSET 0.157640 -0.433110 2.322550
						CHANNELS 3 Zrotation Yrotation Xrotation
						End Site
						{
							OFFSET 0.000000 0.000000 0.000000
						}
					}
				}
			}
		}
	}
	JOINT RHipJoint
	{
		OFFSET 0.000000 0.000000 0.000000
		CHANNELS 3 Zrotation Yrotation Xrotation
		JOINT RightUpLeg
		{
			OFFSET -1.305520 -1.794630 0.839290
			CHANNELS 3 Zrotation Yrotation Xrotation
			JOINT RightLeg
			{
				OFFSET -2.542530 -6.985550 0.000000
				CHANNELS 3 Zrotation Yrotation Xrotation
				JOINT RightFoot
				{
					OFFSET -2.568260 -7.056230 0.000000
					CHANNELS 3 Zrotation Yrotation Xrotation
					JOINT RightToeBase
					{
						OFFSET -0.164730 -0.452590 2.363150
						CHANNELS 3 Zrotation Yrotation Xrotation
						End Site
						{
							OFFSET 0.000000 0.000000 0.000000
						}
					}
				}
			}
		}
	}
	JOINT LowerBack
	{
		OFFSET 0.000000 0.000000 0.000000
		CHANNELS 3 Zrotation Yrotation Xrotation
		JOINT Spine
		{
			OFFSET 0.028270 2.035590 -0.193380
			CHANNELS 3 Zrotation Yrotation Xrotation
			JOINT Spine1
			{
				OFFSET 0.056720 2.048850 -0.042750
				CHANNELS 3 Zrotation Yrotation Xrotation
				JOINT Neck
				{
					OFFSET 0.000000 0.000000 0.000000
					CHANNELS 3 Zrotation Yrotation Xrotation
					JOINT Neck1
					{
						OFFSET -0.054170 1.746240 0.172020
						CHANNELS 3 Zrotation Yrotation Xrotation
						JOINT Head
						{
							OFFSET 0.104070 1.761360 -0.123970
							CHANNELS 3 Zrotation Yrotation Xrotation
							End Site
							{
								OFFSET 0.000000 0.000000 0.000000
							}
						}
					}
				}
				JOINT LeftShoulder
				{
					OFFSET 0.000000 0.000000 0.000000
					CHANNELS 3 Zrotation Yrotation Xrotation
					JOINT LeftArm
					{
						OFFSET 3.362410 1.200890 -0.311210
						CHANNELS 3 Zrotation Yrotation Xrotation
						JOINT LeftForeArm
						{
							OFFSET 4.983000 -0.000000 -0.000000
							CHANNELS 3 Zrotation Yrotation Xrotation
							JOINT LeftHand
							{
								OFFSET 3.483560 -0.000000 -0.000000
								CHANNELS 3 Zrotation Yrotation Xrotation
								JOINT LeftFingerBase
								{
									OFFSET 0.000000 0.000000 0.000000
									CHANNELS 3 Zrotation Yrotation Xrotation
									JOINT LeftHandIndex1
									{
										OFFSET 0.715260 -0.000000 -0.000000
										CHANNELS 3 Zrotation Yrotation Xrotation
										End Site
										{
											OFFSET 0.000000 0.000000 0.000000
										}
									}
								}
								JOINT LThumb
								{
									OFFSET 0.000000 0.000000 0.000000
									CHANNELS 3 Zrotation Yrotation Xrotation
									End Site
									{
										OFFSET 0.000000 0.000000 0.000000
									}
								}
							}
						}
					}
				}
				JOINT RightShoulder
				{
					OFFSET 0.000000 0.000000 0.000000
					CHANNELS 3 Zrotation Yrotation Xrotation
					JOINT RightArm
					{
						OFFSET -3.136600 1.374050 -0.404650
						CHANNELS 3 Zrotation Yrotation Xrotation
						JOINT RightForeArm
						{
							OFFSET -5.241900 -0.000000 -0.000000
							CHANNELS 3 Zrotation Yrotation Xrotation
							JOINT RightHand
							{
								OFFSET -3.444170 -0.000000 -0.000000
								CHANNELS 3 Zrotation Yrotation Xrotation
								JOINT RightFingerBase
								{
									OFFSET 0.000000 0.000000 0.000000
									CHANNELS 3 Zrotation Yrotation Xrotation
									JOINT RightHandIndex1
									{
										OFFSET -0.622530 -0.000000 -0.000000
										CHANNELS 3 Zrotation Yrotation Xrotation
										End Site
										{
											OFFSET 0.000000 0.000000 0.000000
										}
									}
								}
								JOINT RThumb
								{
									OFFSET 0.000000 0.000000 0.000000
									CHANNELS 3 Zrotation Yrotation Xrotation
									End Site
									{
										OFFSET 0.000000 0.000000 0.000000
									}
								}
							}
						}
					}
				}
			}
		}
	}
}
MOTION
Frames: 6
Frame Time: 0.033333
-0.381182 16.579690 -0.381182 -6.367534 1.064242 2.252873 -2.108832 12.364959 2.070984 -10.927289 -4.722938 -10.451552 -4.620998 -13.803622 -36.416153 2.264161 20.746559 42.300523 0.000000 0.000000 0.000000 -2.262746 -1.295342 -19.294452 28.377038 -8.353504 14.314422 5.097831 -2.710579 4.679652 0.701514 10.379891 -31.716151 0.000000 0.000000 0.000000 -2.089410 -3.080459 19.855798 4.031346 -0.179329 -6.541639 8.511131 -1.973150 3.272964 3.114182 -0.929187 -9.556017 0.028798 -0.060445 0.422706 0.000000 0.000000 0.000000 13.700656 5.032448 9.901240 -69.121376 -8.985718 3.173164 -178.328009 -89.865846 178.538292 13.163539 -18.398573 -0.783771 13.649944 -18.174168 0.000000 0.000000 0.000000 0.000000 0.000000 0.000000 0.000000 -8.610377 -7.972504 7.050607 65.257465 12.130541 9.928738 29.005218 53.222766 0.210141 0.419290 9.916905 0.104139 0.410304 9.919634 0.000000 0.000000 0.000000 0.000000 0.000000 0.000000 0.000000 
-0.353120 16.622858 -0.205161 -6.009845 0.161595 2.669745 -1.907055 12.855192 2.037368 -11.671225 -4.590245 -10.411378 -4.634234 -13.358829 -35.692724 1.822026 19.832055 40.374011 0.000000 0.000000 0.000000 -2.066238 -2.723491 -18.362909 28.613811 -6.772163 12.636098 4.329748 -3.123112 7.912331 0.373229 11.416883 -32.469398 0.000000 0.000000 0.000000 -2.146691 -2.797768 19.295229 3.623790 -0.064133 -6.230498 8.462406 -1.852202 3.277370 2.743065 -0.923910 -9.324849 0.176979 -0.060811 0.638533 0.000000 0.000000 0.000000 13.788577 5.127503 9.807936 -68.803766 -9.204578 2.538758 -177.566024 -89.707530 178.456701 13.593046 -18.328684 -0.827038 14.094540 -18.091143 0.000000 0.000000 0.000000 0.000000 0.000000 0.000000 0.000000 -8.389100 -7.877654 7.008359 65.116744 12.006537 10.949643 28.681721 55.631778 0.233705 0.391676 10.216708 0.115816 0.382473 10.219690 0.000000 0.000000 0.000000 0.000000 0.000000 0.000000 0.000000 
-0.322846 16.667844 -0.029693 -5.632950 -0.708039 3.116875 -1.734640 13.322081 1.962367 -12.430839 -4.478977 -10.397656 -4.656215 -12.898201 -34.864200 1.408312 18.873903 38.355386 0.000000 0.000000 0.000000 -1.804621 -4.079870 -17.344553 28.726728 -5.105559 10.855414 3.489147 -3.486688 11.059442 0.074990 12.339964 -33.090937 0.000000 0.000000 0.000000 -2.223486 -2.525543 18.710390 3.226198 0.044812 -5.933018 8.416826 -1.738147 3.265824 2.372111 -0.916678 -9.094798 0.318812 -0.063143 0.860536 0.000000 0.000000 0.000000 13.873601 5.208505 9.714323 -68.486416 -9.418746 1.900799 -176.808265 -89.563616 178.374724 14.015387 -18.245100 -0.870498 14.531359 -17.994461 0.000000 0.000000 0.000000 0.000000 0.000000 0.000000 0.000000 -8.161752 -7.785835 6.951689 64.971570 11.877361 11.997525 28.205574 58.030174 0.257548 0.348321 10.510106 0.127621 0.338838 10.513336 0.000000 0.000000 0.000000 0.000000 0.000000 0.000000 0.000000 
-0.290414 16.714203 0.144825 -5.240900 -1.531400 3.587838 -1.590470 13.764231 1.847464 -13.201530 -4.393120 -10.411214 -4.691424 -12.422596 -33.928632 1.027255 17.876879 36.253839 0.000000 0.000000 0.000000 -1.489984 -5.347088 -16.253274 28.704250 -3.382049 8.994669 2.612880 -3.793609 14.077366 -0.187884 13.145137 -33.579705 0.000000 0.000000 0.000000 -2.314179 -2.268788 18.107208 2.839617 0.143864 -5.647908 8.374203 -1.634284 3.237136 2.002127 -0.907529 -8.865830 0.454084 -0.067392 1.088077 0.000000 0.000000 0.000000 13.956036 5.274362 9.620015 -68.169511 -9.628597 1.260363 -176.054520 -89.434148 178.292475 14.430083 -18.148138 -0.914088 14.959877 -17.884492 0.000000 0.000000 0.000000 0.000000 0.000000 0.000000 0.000000 -7.929381 -7.699406 6.879533 64.821607 11.744380 13.059039 27.573798 60.405258 0.281221 0.287366 10.794710 0.139330 0.277502 10.798175 0.000000 0.000000 0.000000 0.000000 0.000000 0.000000 0.000000 
-0.256395 16.761526 0.318034 -4.837849 -2.297466 4.075241 -1.473066 14.181741 1.696107 -13.977950 -4.336094 -10.453081 -4.739141 -11.932488 -32.886043 0.681627 16.845999 34.081646 0.000000 0.000000 0.000000 -1.134905 -6.512102 -15.106371 28.536926 -1.634660 7.077925 1.743094 -4.044385 16.930235 -0.412643 13.832667 -33.936870 0.000000 0.000000 0.000000 -2.413216 -2.031629 17.492790 2.464951 0.229980 -5.373523 8.334305 -1.543345 3.190363 1.633888 -0.896488 -8.637838 0.582704 -0.073489 1.320508 0.000000 0.000000 0.000000 14.036175 5.324369 9.524619 -67.853198 -9.834429 0.618476 -175.304571 -89.319171 178.210071 14.836665 -18.038129 -0.957742 15.379590 -17.761620 0.000000 0.000000 0.000000 0.000000 0.000000 0.000000 0.000000 -7.693035 -7.620443 6.791096 64.666634 11.609244 14.119375 26.787168 62.744202 0.304251 0.207211 11.068124 0.150704 0.196824 11.071797 0.000000 0.000000 0.000000 0.000000 0.000000 0.000000 0.000000 
-0.217425 16.811420 0.493103 -4.416181 -2.699073 4.550173 -1.426577 14.466543 1.421426 -14.736219 -4.306448 -10.464061 -4.916913 -11.448941 -31.610202 0.387729 15.599272 31.815660 0.000000 0.000000 0.000000 -0.816213 -7.863927 -13.675426 28.258703 0.197753 4.931876 0.968729 -4.244149 19.573069 -0.625608 14.382379 -34.178732 0.000000 0.000000 0.000000 -2.323866 -1.746811 16.637759 2.362047 0.263461 -5.083748 7.834540 -1.303699 2.906942 1.745764 -0.855843 -8.361810 0.423813 -0.071819 1.182410 0.000000 0.000000 0.000000 13.203703 5.617874 9.597953 -68.529016 -9.576191 2.345407 -176.601314 -89.671085 178.409652 13.999382 -18.353816 -0.853445 14.516212 -18.101982 0.000000 0.000000 0.000000 0.000000 0.000000 0.000000 0.000000 -7.435730 -7.752952 6.935361 64.748179 11.203057 14.870963 25.726717 64.602553 0.317682 0.088007 11.292633 0.157276 0.076500 11.296345 0.000000 0.000000 0.000000 0.000000 0.000000 0.000000 0.000000 
